<?xml version="1.0" encoding="iso-8859-1"?>
<!-- Generator: Adobe Illustrator 19.0.0, SVG Export Plug-In . SVG Version: 6.00 Build 0)  -->
<svg xmlns="http://www.w3.org/2000/svg" xmlns:xlink="http://www.w3.org/1999/xlink" version="1.1" id="Layer_1" x="0px" y="0px" viewBox="0 0 496 496" style="enable-background:new 0 0 496 496;" xml:space="preserve" width="512px" height="512px">
<g>
	<g>
		<g>
			<path d="M472,32h-72V0H100.688L0,100.688V496h400V192h72c13.232,0,24-10.768,24-24V56C496,42.768,485.232,32,472,32z M96,27.312     V96H27.312L96,27.312z M384,480H16V112h96V16h272v16H184c-13.232,0-24,10.768-24,24v112c0,13.232,10.768,24,24,24h200V480z      M480,168c0,4.416-3.584,8-8,8H184c-4.416,0-8-3.584-8-8V56c0-4.416,3.584-8,8-8h288c4.416,0,8,3.584,8,8V168z" fill="#FFFFFF"/>
			<rect x="32" y="128" width="16" height="16" fill="#FFFFFF"/>
			<rect x="64" y="128" width="16" height="16" fill="#FFFFFF"/>
			<rect x="32" y="160" width="16" height="16" fill="#FFFFFF"/>
			<polygon points="256,138.664 232,106.664 208,138.664 208,64 192,64 192,160 212,160 232,133.336 252,160 272,160 272,64 256,64         " fill="#FFFFFF"/>
			<path d="M120,336c0,44.112,35.888,80,80,80s80-35.888,80-80s-35.888-80-80-80S120,291.888,120,336z M200,272     c35.288,0,64,28.712,64,64c0,35.288-28.712,64-64,64c-35.288,0-64-28.712-64-64C136,300.712,164.712,272,200,272z" fill="#FFFFFF"/>
			<path d="M168,281.56v108.872L255.096,336L168,281.56z M184,310.44L224.904,336L184,361.56V310.44z" fill="#FFFFFF"/>
			<path d="M328,64c-22.056,0-40,17.944-40,40v56h16v-24h48v24h16v-56C368,81.944,350.056,64,328,64z M352,120h-48v-16     c0-13.232,10.768-24,24-24s24,10.768,24,24V120z" fill="#FFFFFF"/>
			<polygon points="448,94.36 426.728,144 421.272,144 400,94.36 400,64 384,64 384,97.64 410.728,160 437.272,160 464,97.64      464,64 448,64    " fill="#FFFFFF"/>
			<path d="M304.304,435.088l11.592,11.016C344.336,416.176,360,377.08,360,336c0-41.08-15.664-80.176-44.104-110.104     l-11.592,11.016C329.896,263.848,344,299.04,344,336C344,372.96,329.896,408.152,304.304,435.088z" fill="#FFFFFF"/>
			<path d="M275.328,407.56l11.592,11.016C308.248,396.136,320,366.808,320,336c0-30.808-11.752-60.136-33.08-82.576l-11.592,11.016     C293.824,283.896,304,309.312,304,336S293.824,388.104,275.328,407.56z" fill="#FFFFFF"/>
			<path d="M95.696,236.912l-11.592-11.016C55.664,255.824,40,294.92,40,336c0,41.08,15.664,80.176,44.104,110.104l11.592-11.016     C70.104,408.152,56,372.96,56,336C56,299.04,70.104,263.848,95.696,236.912z" fill="#FFFFFF"/>
			<path d="M124.672,264.44l-11.592-11.016C91.752,275.864,80,305.192,80,336c0,30.808,11.752,60.136,33.08,82.576l11.592-11.016     C106.176,388.104,96,362.688,96,336S106.176,283.896,124.672,264.44z" fill="#FFFFFF"/>
		</g>
	</g>
</g>
<g>
</g>
<g>
</g>
<g>
</g>
<g>
</g>
<g>
</g>
<g>
</g>
<g>
</g>
<g>
</g>
<g>
</g>
<g>
</g>
<g>
</g>
<g>
</g>
<g>
</g>
<g>
</g>
<g>
</g>
</svg>
